<?xml version="1.0"?><!DOCTYPE svg  PUBLIC '-//W3C//DTD SVG 1.1//EN'  'http://www.w3.org/Graphics/SVG/1.1/DTD/svg11.dtd'><svg enable-background="new 0 0 24 24" height="24px" id="Layer_1" version="1.1" viewBox="0 0 24 24" width="24px" xml:space="preserve" xmlns="http://www.w3.org/2000/svg" xmlns:xlink="http://www.w3.org/1999/xlink"><g><path d="M22.8,23.5H17c-0.2,0-0.3-0.1-0.4-0.2L12,15.4l-4.5,7.9c-0.1,0.2-0.3,0.2-0.4,0.2H1.2c-0.2,0-0.3-0.1-0.4-0.2   c-0.1-0.1-0.1-0.3,0-0.5c0-0.1,0.1-0.2,0.1-0.2L6.9,12L0.8,1.5c0,0-0.1-0.1-0.1-0.2c-0.1-0.2-0.1-0.4,0-0.5C0.9,0.6,1,0.5,1.2,0.5   H7c0.2,0,0.3,0.1,0.4,0.2L12,8.6l4.5-7.9c0.1-0.2,0.3-0.2,0.4-0.2h5.8c0.2,0,0.3,0.1,0.4,0.2c0.1,0.1,0.1,0.3,0,0.5   c0,0.1-0.1,0.2-0.1,0.3l-6,10.5l6.1,10.5c0,0.1,0.1,0.1,0.1,0.2c0.1,0.2,0.1,0.4,0,0.5S23,23.5,22.8,23.5z M17.3,22.5H22l-5.9-10.2   c-0.1-0.2-0.1-0.3,0-0.5L22,1.5h-4.7l-4.8,8.4c-0.1,0.2-0.3,0.2-0.4,0.2l0,0c-0.2,0-0.3-0.1-0.4-0.2L6.7,1.5H2l5.9,10.2   c0.1,0.2,0.1,0.3,0,0.5L2,22.5h4.7l4.8-8.4c0.2-0.3,0.7-0.3,0.9,0L17.3,22.5z"/></g></svg>